<svg fill="none" height="15" viewBox="0 0 14 15" width="14" xmlns="http://www.w3.org/2000/svg"><path d="m12.4732 7.01807c-.7246.72458-1.8979.72696-2.62544.00715-.52669.56751-1.07024 1.14388-1.64009 1.71373-.55901.559-1.12429 1.0927-1.68132 1.61005.71865.7276.71588 1.9-.00831 2.6242-.72697.727-1.90562.727-2.63259 0-.51671-.5167-.66616-1.2616-.44834-1.9103-.6487.2178-1.39358.0683-1.91028-.4484-.726975-.72695-.726975-1.9056 0-2.63257.72416-.72417 1.89654-.72696 2.62416-.00838.51729-.55702 1.05099-1.1223 1.60998-1.68129.56985-.56985 1.14622-1.1134 1.71372-1.64009-.71977-.72753-.71737-1.90079.00719-2.62536.72698-.72697 1.90563-.72697 2.63262 0 .5167.51672.6661 1.26163.4483 1.91034.6487-.21784 1.3936-.06839 1.9104.44833.7269.72697.7269 1.90562 0 2.63259z" fill="#d7e0ff" stroke="#4147d5" stroke-linejoin="round" stroke-width="1.5"/></svg>